<?xml version="1.0" encoding="UTF-8"?>
<svg id="Layer_1" data-name="Layer 1" xmlns="http://www.w3.org/2000/svg" viewBox="0 0 372.29 192.34">
  <defs>
    <style>
      .cls-1 {
        fill: none;
        stroke: #231f20;
        stroke-miterlimit: 10;
        stroke-width: 4.86px;
      }

      .cls-2 {
        fill: #231f20;
        stroke-width: 0px;
      }
    </style>
  </defs>
  <path class="cls-1" d="m91.76,147.21c-5.17,1.16-10.54,1.76-16.06,1.76C35.24,148.98,2.43,116.17,2.43,75.71S35.24,2.43,75.71,2.43s73.27,32.81,73.27,73.27c0,12.33-1.9,31.71-11.62,33.97"/>
  <g>
    <path class="cls-2" d="m61.44,71.92v5.92h-8.13v25.33c0,.79.07,1.42.2,1.89.13.47.38.84.75,1.11.37.26.88.43,1.54.51.66.08,1.51.12,2.56.12h3.08v5.92h-5.13c-1.74,0-3.22-.12-4.46-.36-1.24-.24-2.24-.67-3-1.3-.76-.63-1.33-1.53-1.7-2.68-.37-1.16-.55-2.68-.55-4.58v-25.96h-6.94v-5.92h6.94v-12.23h6.71v12.23h8.13Z"/>
    <path class="cls-2" d="m75.57,56.37v21.54h.16c.53-1.26,1.26-2.33,2.21-3.2.95-.87,2.01-1.58,3.2-2.13,1.18-.55,2.42-.96,3.71-1.22,1.29-.26,2.54-.39,3.75-.39,2.68,0,4.92.37,6.71,1.1,1.79.74,3.24,1.76,4.34,3.08,1.1,1.32,1.88,2.88,2.33,4.7.45,1.82.67,3.83.67,6.04v26.83h-6.71v-27.62c0-2.53-.74-4.52-2.21-6-1.47-1.47-3.5-2.21-6.08-2.21-2.05,0-3.83.32-5.33.95-1.5.63-2.75,1.53-3.75,2.68-1,1.16-1.75,2.51-2.25,4.06-.5,1.55-.75,3.25-.75,5.09v23.04h-6.71v-56.35h6.71Z"/>
    <path class="cls-2" d="m141.62,111.06c-3.05,2.32-6.89,3.47-11.52,3.47-3.26,0-6.09-.53-8.48-1.58-2.39-1.05-4.41-2.53-6.04-4.42-1.63-1.89-2.85-4.16-3.67-6.79-.82-2.63-1.28-5.5-1.38-8.6,0-3.1.47-5.94,1.42-8.52.95-2.58,2.28-4.81,3.99-6.71,1.71-1.89,3.74-3.37,6.08-4.42,2.34-1.05,4.91-1.58,7.69-1.58,3.63,0,6.64.75,9.04,2.25,2.39,1.5,4.31,3.41,5.76,5.72,1.45,2.32,2.45,4.84,3,7.58.55,2.74.78,5.34.67,7.81h-30.54c-.05,1.79.16,3.49.63,5.09.47,1.61,1.24,3.03,2.29,4.26,1.05,1.24,2.39,2.22,4.03,2.96,1.63.74,3.55,1.1,5.76,1.1,2.84,0,5.17-.66,6.98-1.97,1.81-1.31,4.59-3.82,6.15-6.54l4.72.64c-.89,4.58-3.52,7.94-6.58,10.25Zm-1.62-26.2c-.61-1.42-1.42-2.64-2.45-3.67-1.03-1.03-2.24-1.84-3.63-2.45-1.39-.6-2.93-.91-4.62-.91s-3.3.3-4.7.91c-1.39.61-2.59,1.43-3.59,2.49-1,1.05-1.79,2.28-2.37,3.67-.58,1.39-.92,2.88-1.03,4.46h23.44c-.11-1.58-.46-3.08-1.07-4.5Z"/>
    <path class="cls-2" d="m154.17,83.95c.84-2.6,2.1-4.87,3.79-6.79,1.68-1.92,3.76-3.43,6.23-4.54,2.47-1.1,5.31-1.66,8.52-1.66s6.12.55,8.56,1.66,4.51,2.62,6.19,4.54c1.68,1.92,2.95,4.18,3.79,6.79.84,2.6,1.26,5.41,1.26,8.4s-.42,5.79-1.26,8.36c-.84,2.58-2.1,4.83-3.79,6.75-1.68,1.92-3.75,3.42-6.19,4.5-2.45,1.08-5.3,1.62-8.56,1.62s-6.05-.54-8.52-1.62c-2.47-1.08-4.55-2.58-6.23-4.5-1.68-1.92-2.95-4.17-3.79-6.75-.84-2.58-1.26-5.37-1.26-8.36s.42-5.8,1.26-8.4Zm6.83,14.99c.66,1.92,1.56,3.53,2.72,4.81,1.16,1.29,2.51,2.28,4.06,2.96,1.55.68,3.2,1.03,4.93,1.03s3.38-.34,4.93-1.03c1.55-.68,2.91-1.67,4.06-2.96,1.16-1.29,2.06-2.89,2.72-4.81.66-1.92.99-4.12.99-6.59s-.33-4.67-.99-6.59c-.66-1.92-1.57-3.54-2.72-4.85-1.16-1.31-2.51-2.32-4.06-3-1.55-.68-3.2-1.03-4.93-1.03s-3.38.34-4.93,1.03c-1.55.68-2.91,1.68-4.06,3-1.16,1.32-2.07,2.93-2.72,4.85-.66,1.92-.99,4.12-.99,6.59s.33,4.67.99,6.59Z"/>
    <path class="cls-2" d="m122.21,177.12c-1.16.68-2.76,1.03-4.81,1.03-1.74,0-3.12-.49-4.14-1.46s-1.54-2.56-1.54-4.77c-1.84,2.21-3.99,3.8-6.43,4.77-2.45.97-5.09,1.46-7.93,1.46-1.84,0-3.59-.21-5.25-.63-1.66-.42-3.09-1.08-4.3-1.97-1.21-.89-2.17-2.06-2.88-3.51-.71-1.45-1.07-3.2-1.07-5.25,0-2.31.39-4.21,1.18-5.68.79-1.47,1.83-2.67,3.12-3.59,1.29-.92,2.76-1.62,4.42-2.09,1.66-.47,3.35-.87,5.09-1.18,1.84-.37,3.59-.64,5.25-.83,1.66-.18,3.12-.45,4.38-.79,1.26-.34,2.26-.84,3-1.5.74-.66,1.11-1.62,1.11-2.88,0-1.47-.28-2.66-.83-3.55-.55-.89-1.26-1.58-2.13-2.05-.87-.47-1.84-.79-2.92-.95-1.08-.16-2.14-.24-3.2-.24-2.84,0-5.21.54-7.1,1.62-1.89,1.08-2.92,3.12-3.08,6.12h-6.71c.1-2.53.63-4.66,1.58-6.39.95-1.74,2.21-3.14,3.79-4.22,1.58-1.08,3.38-1.85,5.41-2.33,2.02-.47,4.19-.71,6.51-.71,1.84,0,3.67.13,5.49.39,1.81.26,3.46.8,4.93,1.61,1.47.81,2.66,1.96,3.55,3.43.89,1.47,1.34,3.39,1.34,5.75v20.95c0,1.58.09,2.73.28,3.47.18.73.8,1.1,1.85,1.1.58,0,1.26-.1,2.05-.32v5.21Zm-9-22.35c-.84.63-1.95,1.09-3.31,1.37-1.37.29-2.8.52-4.3.71-1.5.18-3.01.39-4.54.63-1.53.24-2.89.62-4.1,1.14-1.21.52-2.2,1.27-2.96,2.24-.76.97-1.14,2.29-1.14,3.97,0,1.1.22,2.03.67,2.79.45.76,1.03,1.38,1.74,1.85s1.54.81,2.49,1.02c.95.21,1.95.31,3,.31,2.21,0,4.1-.3,5.68-.9,1.58-.6,2.87-1.36,3.87-2.28,1-.92,1.74-1.91,2.21-2.98.47-1.07.71-2.08.71-3.02v-6.83Z"/>
    <path class="cls-2" d="m136.41,135.05v8.6h.16c1.63-3.31,3.63-5.76,6-7.34,2.37-1.58,5.37-2.31,9-2.21v7.1c-2.68,0-4.97.37-6.87,1.11s-3.42,1.81-4.58,3.23c-1.16,1.42-2,3.14-2.53,5.17-.53,2.03-.79,4.35-.79,6.98v18.15h-6.71v-40.8h6.31Z"/>
    <path class="cls-2" d="m184.95,175.85v-5.52h-.16c-1.1,2.26-2.84,3.89-5.21,4.89-2.37,1-4.97,1.5-7.81,1.5-3.16,0-5.91-.58-8.25-1.74-2.34-1.16-4.29-2.71-5.84-4.66-1.55-1.95-2.72-4.21-3.51-6.79-.79-2.58-1.18-5.31-1.18-8.21s.38-5.63,1.14-8.21c.76-2.58,1.92-4.83,3.47-6.75,1.55-1.92,3.5-3.44,5.84-4.58,2.34-1.13,5.06-1.7,8.17-1.7,1.05,0,2.18.11,3.39.32,1.21.21,2.42.57,3.63,1.07,1.21.5,2.35,1.16,3.43,1.97,1.08.82,1.99,1.83,2.72,3.04h.16v-20.99h6.71v56.35h-6.71Zm-24.11-14.48c.5,1.82,1.26,3.43,2.29,4.85,1.03,1.42,2.34,2.55,3.95,3.39,1.6.84,3.48,1.26,5.64,1.26s4.18-.45,5.76-1.34c1.58-.89,2.87-2.06,3.87-3.51,1-1.45,1.72-3.09,2.17-4.93.45-1.84.67-3.71.67-5.6,0-2-.24-3.93-.71-5.8-.47-1.87-1.22-3.51-2.25-4.93s-2.36-2.56-3.99-3.43c-1.63-.87-3.6-1.3-5.92-1.3s-4.18.45-5.76,1.34c-1.58.89-2.84,2.08-3.79,3.55-.95,1.47-1.63,3.16-2.05,5.05-.42,1.89-.63,3.84-.63,5.84,0,1.89.25,3.75.75,5.56Z"/>
    <path class="cls-2" d="m202.39,127.71v-8.21h6.71v8.21h-6.71Zm6.71,7.34v40.8h-6.71v-40.8h6.71Z"/>
    <path class="cls-2" d="m225.82,135.05v6.47h.16c2.79-4.94,7.21-7.42,13.26-7.42,2.68,0,4.92.37,6.71,1.1,1.79.74,3.24,1.76,4.34,3.08,1.1,1.32,1.88,2.88,2.33,4.7.45,1.82.67,3.83.67,6.04v26.83h-6.71v-27.62c0-2.53-.74-4.52-2.21-6-1.47-1.47-3.5-2.21-6.08-2.21-2.05,0-3.83.32-5.33.95-1.5.63-2.75,1.53-3.75,2.68-1,1.16-1.75,2.51-2.25,4.06-.5,1.55-.75,3.25-.75,5.09v23.04h-6.71v-40.8h6.31Z"/>
    <path class="cls-2" d="m294.01,187.37c-3.05,3.31-7.84,4.97-14.36,4.97-1.89,0-3.83-.21-5.8-.63-1.97-.42-3.76-1.1-5.37-2.05-1.61-.95-2.93-2.18-3.99-3.71-1.05-1.53-1.63-3.39-1.74-5.6h6.71c.05,1.21.43,2.24,1.14,3.08.71.84,1.58,1.53,2.6,2.05,1.03.53,2.14.91,3.35,1.14,1.21.24,2.37.36,3.47.36,2.21,0,4.08-.38,5.6-1.14,1.53-.76,2.79-1.82,3.79-3.16,1-1.34,1.72-2.96,2.17-4.85.45-1.89.67-3.97.67-6.23v-2.68h-.16c-1.16,2.53-2.91,4.38-5.25,5.56-2.34,1.18-4.83,1.78-7.46,1.78-3.05,0-5.71-.55-7.97-1.66-2.26-1.1-4.16-2.59-5.68-4.46-1.53-1.87-2.67-4.05-3.43-6.55-.76-2.5-1.14-5.14-1.14-7.93,0-2.42.32-4.91.95-7.46.63-2.55,1.68-4.86,3.16-6.94,1.47-2.08,3.42-3.79,5.84-5.13,2.42-1.34,5.39-2.01,8.92-2.01,2.58,0,4.94.57,7.1,1.7,2.16,1.13,3.84,2.83,5.05,5.09h.08v-5.84h6.31v37.33c0,6.68-1.53,11.68-4.58,14.99Zm-8.56-18.35c1.55-.92,2.8-2.13,3.75-3.63.95-1.5,1.64-3.2,2.09-5.09.45-1.89.67-3.79.67-5.68,0-1.79-.21-3.55-.63-5.29-.42-1.74-1.09-3.3-2.01-4.69-.92-1.39-2.12-2.51-3.59-3.35-1.47-.84-3.26-1.26-5.37-1.26s-4,.41-5.52,1.22c-1.53.82-2.78,1.91-3.75,3.28-.97,1.37-1.68,2.95-2.13,4.74-.45,1.79-.67,3.66-.67,5.6,0,1.84.18,3.68.55,5.52.37,1.84,1,3.51,1.89,5.01.89,1.5,2.08,2.71,3.55,3.63,1.47.92,3.31,1.38,5.52,1.38s4.09-.46,5.64-1.38Z"/>
    <path class="cls-2" d="m337.57,173.24c-3.05,2.32-6.89,3.47-11.52,3.47-3.26,0-6.09-.53-8.48-1.58-2.39-1.05-4.41-2.53-6.04-4.42-1.63-1.89-2.85-4.16-3.67-6.79-.82-2.63-1.28-5.5-1.38-8.6,0-3.1.47-5.94,1.42-8.52.95-2.58,2.28-4.81,3.99-6.71,1.71-1.89,3.74-3.37,6.08-4.42,2.34-1.05,4.91-1.58,7.69-1.58,3.63,0,6.64.75,9.04,2.25,2.39,1.5,4.31,3.41,5.76,5.72,1.45,2.32,2.45,4.84,3,7.58.55,2.74.78,5.34.67,7.81h-30.54c-.05,1.79.16,3.49.63,5.09.47,1.61,1.24,3.03,2.29,4.26,1.05,1.24,2.39,2.22,4.03,2.96,1.63.74,3.55,1.1,5.76,1.1,2.84,0,5.17-.66,6.98-1.97,1.81-1.31,3.01-3.31,3.59-6h6.63c-.89,4.58-2.87,8.02-5.92,10.34Zm-1.62-26.2c-.61-1.42-1.42-2.64-2.45-3.67-1.03-1.03-2.24-1.84-3.63-2.45-1.39-.6-2.93-.91-4.62-.91s-3.3.3-4.7.91c-1.39.61-2.59,1.43-3.59,2.49-1,1.05-1.79,2.28-2.37,3.67-.58,1.39-.92,2.88-1.03,4.46h23.44c-.11-1.58-.46-3.08-1.07-4.5Z"/>
    <path class="cls-2" d="m357.14,135.05v8.6h.16c1.63-3.31,3.63-5.76,6-7.34,2.37-1.58,5.37-2.31,9-2.21v7.1c-2.68,0-4.97.37-6.87,1.11s-3.42,1.81-4.58,3.23c-1.16,1.42-2,3.14-2.53,5.17-.53,2.03-.79,4.35-.79,6.98v18.15h-6.71v-40.8h6.31Z"/>
  </g>
</svg>