<?xml version="1.0" encoding="utf-8"?>
<!-- Generator: Adobe Illustrator 27.9.0, SVG Export Plug-In . SVG Version: 6.00 Build 0)  -->
<svg version="1.1" id="Layer_1" xmlns="http://www.w3.org/2000/svg" xmlns:xlink="http://www.w3.org/1999/xlink" x="0px" y="0px"
	 viewBox="0 0 576 576" style="enable-background:new 0 0 576 576;" xml:space="preserve">
<style type="text/css">
	.st0{fill:none;stroke:#000000;stroke-width:4.4382;stroke-miterlimit:10;}
</style>
<g>
	<g>
		<path d="M289.9,267.2v8h-11v34.2c0,1.1,0.1,1.9,0.3,2.6c0.2,0.6,0.5,1.1,1,1.5c0.5,0.4,1.2,0.6,2.1,0.7c0.9,0.1,2,0.2,3.5,0.2h4.1
			v8H283c-2.3,0-4.3-0.2-6-0.5c-1.7-0.3-3-0.9-4-1.8c-1-0.9-1.8-2.1-2.3-3.6s-0.8-3.6-0.8-6.2v-35h-9.4v-8h9.4v-16.5h9v16.5
			L289.9,267.2L289.9,267.2z"/>
		<path d="M352.3,319.8c-1.6,0.9-7.3,3.7-10.1,3.7c-2.3,0-4.2-0.7-5.6-2s-2.1-3.5-2.1-6.4c-2.5,3-5.4,5.1-8.7,6.4
			c-3.3,1.3-6.9,2-10.7,2c-2.5,0-4.9-0.3-7.1-0.9c-2.2-0.6-4.2-1.4-5.8-2.7c-1.6-1.2-2.9-2.8-3.9-4.7s-1.4-4.3-1.4-7.1
			c0-3.1,0.5-5.7,1.6-7.7c1.1-2,2.5-3.6,4.2-4.9c1.7-1.2,3.7-2.2,6-2.8c2.2-0.6,4.5-1.2,6.9-1.6c2.5-0.5,4.9-0.9,7.1-1.1
			c2.2-0.2,4.2-0.6,5.9-1.1c1.7-0.5,3.1-1.1,4.1-2c1-0.9,1.5-2.2,1.5-3.9c0-2-0.4-3.6-1.1-4.8s-1.7-2.1-2.9-2.8
			c-1.2-0.6-2.5-1.1-3.9-1.3c-1.5-0.2-2.9-0.3-4.3-0.3c-3.8,0-7,0.7-9.6,2.2c-2.6,1.5-3.9,4.2-4.1,8.3h-9c0.1-3.4,0.9-6.3,2.1-8.6
			c1.3-2.3,3-4.2,5.1-5.7c2.1-1.5,4.6-2.5,7.3-3.1c2.7-0.6,5.7-1,8.8-1c2.5,0,5,0.2,7.4,0.5c2.4,0.4,4.7,1.1,6.7,2.2
			c2,1.1,3.6,2.6,4.8,4.6c1.2,2,1.8,4.6,1.8,7.8v28.3c0,2.1,0.1,3.7,0.4,4.7s1,3,2.5,3c0.8,0,2.9-0.3,3.9-0.6L352.3,319.8z
			 M334,293.9c-1.1,0.9-2.6,1.5-4.5,1.9c-1.9,0.4-3.8,0.7-5.8,1c-2,0.2-4.1,0.5-6.1,0.9c-2.1,0.3-3.9,0.8-5.5,1.5
			c-1.6,0.7-3,1.7-4,3c-1,1.3-1.5,3.1-1.5,5.4c0,1.5,0.3,2.7,0.9,3.8c0.6,1,1.4,1.9,2.3,2.5c1,0.6,2.1,1.1,3.4,1.4s2.6,0.4,4.1,0.4
			c3,0,5.5-0.4,7.7-1.2s3.9-1.8,5.2-3.1c1.3-1.2,2.3-2.6,3-4c0.6-1.4,1-2.8,1-4.1L334,293.9L334,293.9z"/>
	</g>
	<path class="st0" d="M307.1,353.2c-4.7,1.1-9.6,1.6-14.6,1.6c-36.9,0-66.9-29.9-66.9-66.9s29.9-66.9,66.9-66.9s66.8,29.9,66.8,66.9
		c0,11.2-1.7,28.9-10.6,31"/>
</g>
</svg>
