<?xml version="1.0" encoding="utf-8"?>
<!-- Generator: Adobe Illustrator 27.9.0, SVG Export Plug-In . SVG Version: 6.00 Build 0)  -->
<svg version="1.1" id="Layer_1" xmlns="http://www.w3.org/2000/svg" xmlns:xlink="http://www.w3.org/1999/xlink" x="0px" y="0px"
	 viewBox="0 0 1400 900" style="enable-background:new 0 0 1400 900;" xml:space="preserve">
<style type="text/css">
	.st0{fill:#FEF6DD;}
	.st1{display:none;}
	.st2{display:none;fill:#5DA479;}
	.st3{display:none;fill:#343F87;}
	.st4{display:none;fill:#C1663B;}
	.st5{fill:#C1663B;}
	.st6{display:none;fill:#5DA479;stroke:#000000;stroke-width:0.3643;stroke-miterlimit:10;}
	.st7{display:none;fill:#5DA479;stroke:#000000;stroke-miterlimit:10;}
	.st8{fill:#5DA479;}
	.st9{fill:#343F87;}
	.st10{fill:#EAB458;}
</style>
<rect x="-16.9" y="-21.9" class="st0" width="1433.6" height="949.7"/>
<g id="wkWajb.tif" class="st1">
	
		<image style="display:inline;overflow:visible;" width="1172" height="726" id="Layer_0" xlink:href="7B33E69A7C5060BD.png"  transform="matrix(0.5 0 0 0.5 1656.0168 718.5)">
	</image>
</g>
<path class="st2" d="M1828.6,149.1c46.7-14.3,59-99.3,185.8-29.2c52.4,29,91.7,39.9,105.4,110.3c12.4,63.8,64.7,47.1,47.2,152.7
	c-22.6,135.9-53.3,112.1-88.8,159.1c-34.4,45.6,29-30.1-86,76.9c-64.1,59.6-79.9,40.8-221.9,17.3c-57.6-9.5-135.7-112-122-181.8
	c20.7-105.8-37.7-95.4-34.4-178.6c3.1-77.8,18.6-66.1,64.9-90.9C1745.4,149.1,1785.1,162.5,1828.6,149.1z"/>
<path class="st3" d="M1697,1184.2c46.7-14.1,58.9-97.5,185.8-28.7c52.4,28.4,91.7,39.1,105.4,108.3c12.4,62.7,64.7,46.3,47.1,150
	c-22.6,133.5-53.3,110.1-88.7,156.3c-34.4,44.8,29-29.6-86,75.5c-64,58.6-79.8,40.1-221.8,17c-57.5-9.4-135.6-110-122-178.6
	c20.7-104-37.7-93.7-34.4-175.4c3.1-76.4,18.6-64.9,64.9-89.3C1613.8,1184.2,1653.5,1197.3,1697,1184.2z"/>
<path class="st4" d="M452.4,1625c-20.2,20.6-33.4,32.2-53.5,40.3c-67.4,27.3-137.2-18.6-152.3-21.5
	c-53.4-10.3-125.9-121.7-113.2-197.5c19.2-115-35-103.7-31.9-194c2.9-84.5,17.2-71.8,60.2-98.8c61.8-38.8,98.6-24.3,138.9-38.8
	c43.3-15.6,54.7-107.8,172.4-31.7c48.6,31.5,85.1,43.3,97.8,119.8c8.1,48.7,30.2,50.4,39.5,79.8c10.7,34,7.1,62.8,4.2,86.1
	C601.5,1472.8,531.7,1544,452.4,1625z"/>
<path class="st5" d="M-93.3,44.8"/>
<path class="st6" d="M-274,616.5c0,0,288.6,166.7-1.1,311.3L-274,616.5z"/>
<path class="st7" d="M2439.8,779.4c0,0-414.8-1156.1,744.2-873L2439.8,779.4z"/>
<path class="st4" d="M-306.3,507c0,0,314.5,197-13.5,346.3L-306.3,507z"/>
<path class="st3" d="M-355.6,375.6c0,0,356.7,193.6,8.8,378.9L-355.6,375.6z"/>
<path class="st7" d="M1597.1,1659.7c0,0,594.3-1074.9,1147-17.5L1597.1,1659.7z"/>
<path class="st5" d="M1499.5,823.6"/>
<path class="st6" d="M1719.5,251.8c0,0-288.6-166.7,1.1-311.3L1719.5,251.8z"/>
<path class="st4" d="M1658.2,375.6c0,0-314.5-197,13.5-346.3L1658.2,375.6z"/>
<g>
	<circle class="st8" cx="1174.4" cy="357.9" r="197.8"/>
	<circle class="st9" cx="848.9" cy="417.8" r="223.8"/>
	<circle class="st5" cx="546.7" cy="520.7" r="223.8"/>
	<circle class="st10" cx="251.5" cy="542.1" r="223.8"/>
</g>
</svg>
